<?xml version="1.0" encoding="utf-8"?>
<!-- Generator: Adobe Illustrator 23.1.1, SVG Export Plug-In . SVG Version: 6.00 Build 0)  -->
<svg version="1.1" id="Layer_1" xmlns="http://www.w3.org/2000/svg" xmlns:xlink="http://www.w3.org/1999/xlink" x="0px" y="0px"
	 viewBox="0 0 595.276 325.027" enable-background="new 0 0 595.276 325.027" xml:space="preserve">
<g>
	<path d="M83.914,105.727c-8.683,0-27.135-0.542-32.382-0.542l-3.075,7.597c-2.894,7.78-6.513,18.996-6.513,26.955
		c0,5.97,3.437,8.864,10.131,8.864c1.446,0,4.341-0.542,5.065-0.542c0.904,0,1.266,0.362,1.266,0.904
		c0,0.543-0.18,1.086-2.171,1.086c-3.256,0-17.547-0.362-20.622-0.362c-2.352,0-10.492,0.362-15.015,0.362
		c-0.724,0-1.086-0.362-1.086-0.904c0-0.543,0.362-0.724,1.086-0.724h0.724c4.885,0,9.226-3.619,13.025-10.854
		c4.522-7.779,9.045-17.91,11.94-25.689L81.2,24.683c0.182-0.362,0.542-0.542,1.266-0.542h1.809c0.904,0,1.628,0.18,1.809,0.542
		l32.924,78.512c17.909,42.512,20.804,45.225,29.306,45.225h1.448c0.904,0,1.266,0.18,1.266,0.724c0,0.542-0.362,0.904-1.086,0.904
		c-5.245,0-15.557-0.542-18.271-0.542c-2.895,0-16.643,0.542-21.889,0.542c-1.448,0-1.99-1.628-0.542-1.628h3.799
		c7.597,0,9.406-3.075-7.96-43.236L83.914,105.727z M77.221,40.059l-25.145,63.497l30.752-0.182h21.347v-0.18L77.221,40.059z"/>
	<path d="M168.746,120.923c0,13.929-0.724,23.516-1.448,26.591c5.427,0,28.764,0.543,34.553,0.543
		c20.984,0,35.095-23.155,37.447-41.426l1.809-16.462c0.18-1.266,2.17-1.086,1.99,0.18l-1.809,16.643
		c-3.437,30.211-4.523,41.065-5.969,41.97c-0.724,0.724-11.397,1.086-24.061,1.086c-6.331,0-17.728-0.18-27.315-0.18
		c-5.789-0.182-11.759-0.182-17.728-0.362l-25.508,0.542c-1.99,0-1.99-1.266,0-1.266c10.493,0,12.121-1.267,13.569-24.061
		c0.904-12.301,0.18-37.627,0.18-45.767c0-8.322-0.542-26.231-0.542-36.181c0-16.462-0.362-16.462-11.94-16.462
		c-1.448,0-1.448-1.628,0-1.628c1.628,0,19.175,0.362,22.07,0.362c2.713,0,16.824-0.362,22.251-0.362c1.446,0,1.446,1.628,0,1.628
		h-5.065c-12.301,0-12.483,0.905-12.483,45.226V120.923z"/>
	<path d="M254.665,71.537c0-44.321-0.905-45.226-9.77-45.226h-3.798c-1.448,0-1.448-1.628,0-1.628
		c4.884,0,18.271,0.543,20.622,0.543c2.713,0,15.377-0.543,20.442-0.543c1.448,0,1.448,1.628,0,1.628h-3.799
		c-8.864,0-9.768,0.905-9.768,45.226v31.658c0,44.32,0.904,45.225,9.768,45.225h3.799c1.448,0,1.448,1.628,0,1.628
		c-5.065,0-17.728-0.542-20.442-0.542c-2.352,0-15.739,0.542-20.622,0.542c-1.448,0-1.448-1.628,0-1.628h3.798
		c8.864,0,9.77-0.905,9.77-45.225V71.537z"/>
	<path d="M351.263,150.048c30.21,0,44.321-19.176,47.215-48.301h1.448l-2.171,42.15c-9.949,4.341-26.593,7.96-46.129,7.96
		c-38.894,0-68.562-27.498-68.562-64.401c0-37.809,32.201-64.583,69.286-64.583c15.015,0,35.275,3.619,45.044,7.96l2.171,39.436
		h-1.628c-2.895-28.763-17.186-45.587-45.225-45.587c-32.563,0-53.367,25.689-53.367,62.773S318.339,150.048,351.263,150.048z"/>
	<path d="M418.727,71.537c0-44.321-0.905-45.226-9.768-45.226h-3.799c-1.448,0-1.448-1.628,0-1.628
		c4.884,0,18.271,0.543,20.622,0.543c2.714,0,15.377-0.543,20.442-0.543c1.448,0,1.448,1.628,0,1.628h-3.799
		c-8.864,0-9.768,0.905-9.768,45.226v31.658c0,44.32,0.904,45.225,9.768,45.225h3.799c1.448,0,1.448,1.628,0,1.628
		c-5.065,0-17.728-0.542-20.442-0.542c-2.352,0-15.739,0.542-20.622,0.542c-1.448,0-1.448-1.628,0-1.628h3.799
		c8.863,0,9.768-0.905,9.768-45.225V71.537z"/>
	<path d="M502.298,105.727c-8.683,0-27.135-0.542-32.382-0.542l-3.075,7.597c-2.894,7.78-6.513,18.996-6.513,26.955
		c0,5.97,3.437,8.864,10.131,8.864c1.446,0,4.341-0.542,5.065-0.542c0.904,0,1.266,0.362,1.266,0.904
		c0,0.543-0.18,1.086-2.171,1.086c-3.256,0-17.547-0.362-20.622-0.362c-2.352,0-10.492,0.362-15.015,0.362
		c-0.724,0-1.086-0.362-1.086-0.904c0-0.543,0.362-0.724,1.086-0.724h0.724c4.885,0,9.226-3.619,13.025-10.854
		c4.522-7.779,9.045-17.91,11.94-25.689l34.913-87.195c0.182-0.362,0.543-0.542,1.266-0.542h1.809c0.904,0,1.628,0.18,1.809,0.542
		l32.924,78.512c17.91,42.512,20.803,45.225,29.306,45.225h1.448c0.905,0,1.266,0.18,1.266,0.724c0,0.542-0.361,0.904-1.084,0.904
		c-5.248,0-15.56-0.542-18.273-0.542c-2.893,0-16.642,0.542-21.887,0.542c-1.448,0-1.99-1.628-0.545-1.628h3.8
		c7.598,0,9.406-3.075-7.961-43.236L502.298,105.727z M495.605,40.059l-25.145,63.497l30.752-0.182h21.347v-0.18L495.605,40.059z"/>
	<path d="M152.201,163.267c1.266,0.542,1.809,0.542,1.99,1.99c0.543,3.618-1.086,15.557-1.086,44.14c0,2.352-1.808,2.352-1.808,0
		c0.542-28.039-4.703-49.024-38.532-49.024c-22.251,0-30.934,10.312-30.934,24.061c0,17.185,18.452,24.964,37.265,32.742
		c18.814,7.779,37.809,16.101,37.809,35.638c0,20.804-17.728,34.733-39.436,34.733c-19.538,0-29.125-1.99-42.15-5.427
		c-1.628-0.543-1.809-0.543-1.809-1.809c0-8.322-0.18-37.628-0.18-46.311c0-2.713,1.99-2.713,1.99,0
		c0,33.829,12.12,51.738,42.15,51.738c19.718,0,28.582-10.13,28.582-24.421c0-17.728-18.09-24.965-36.543-32.743
		c-19.537-7.779-39.074-16.462-39.074-35.637c0-21.528,19.176-34.373,42.331-34.373C130.855,158.562,141.89,160.915,152.201,163.267
		z"/>
	<path d="M218.946,238.884c0,44.32,0.904,45.225,9.768,45.225h3.256c1.448,0,1.448,1.628,0,1.628
		c-5.245,0-17.367-0.542-19.899-0.542c-2.713,0-15.015,0.542-20.08,0.542c-1.448,0-1.448-1.628,0-1.628h3.256
		c8.864,0,9.768-0.905,9.768-45.225v-78.692c-5.065,0.18-10.672,0.18-14.833,0.18c-19.176,0-26.411,13.206-29.848,36.904
		l-1.448,10.312c-0.543,1.266-2.352,1.266-1.809,0l1.448-10.312c2.352-19.356,1.086-36.904,1.99-37.447
		c1.266-0.543,9.588-1.267,22.07-1.267c4.523,0,21.347,0.362,29.306,0.362c7.96,0,10.854-0.362,29.126-0.362h0.18
		c12.483,0,20.804,0.724,22.07,1.267c1.086,0.542-0.724,18.09,2.171,37.447l1.266,10.312c0.543,1.266-1.086,1.266-1.628,0
		l-1.628-10.312c-3.799-23.517-10.312-37.085-30.03-37.085h-14.472V238.884z"/>
	<path d="M290.57,219.708h15.015c22.613,0,27.497-8.502,27.497-20.804v-3.799c0-1.448,1.809-1.448,1.809,0
		c0,5.427-0.904,22.975-0.904,25.689c0,2.532,0.904,22.07,0.904,24.783c0,1.448-1.809,1.448-1.809,0v-2.713
		c0-12.482-4.884-20.984-27.497-20.984H290.57v34.733c0,13.929-0.724,23.516-1.448,26.591c5.247,0,28.582,0.543,34.191,0.543
		c21.166,0,35.819-18.09,38.17-36.543l1.086-9.588c0.18-1.266,2.17-1.086,1.99,0.182l-1.086,9.768
		c-3.437,29.306-4.161,36.543-5.607,37.447c-0.724,0.724-11.397,0.724-24.061,0.724c-6.331,0-18.09-0.18-27.678-0.18
		c-5.789-0.182-11.758-0.182-18.089-0.362l-25.507,0.542c-1.991,0-1.991-1.266,0-1.266c10.492,0,12.12-1.267,13.567-24.061
		c0.904-12.482,0.724-36.361,0.724-53.184c0-44.321-1.629-45.226-10.493-45.226h-3.256c-1.448,0-1.448-1.628,0-1.628
		c5.065,0,17.367,0.543,20.08,0.543c2.352,0,57.346-0.543,63.677-0.543c3.437,0,7.236,0.182,8.502,0.724
		c0.904,0.542,2.533,13.749,5.247,33.286l0.723,6.513c0.543,1.266-1.266,1.266-1.808,0l-0.905-6.513
		c-3.436-20.442-17.367-31.658-38.169-31.838h-22.975c-8.14,0-6.875,0.362-6.875,44.683V219.708z"/>
	<path d="M364.369,285.737c-1.446,0-1.446-1.628,0-1.628c8.684,0,11.036-0.543,8.322-0.362c2.714-2.714,3.075-6.332,3.618-16.281
		c0.543-9.95,0.543-27.86,0.543-36.181v-24.06c0-44.321-0.905-45.226-9.77-45.226h-3.256c-1.448,0-1.448-1.628,0-1.628
		c5.065,0,17.367,0.543,20.08,0.543c2.352,0,29.306-0.543,32.382-0.543c29.306,0,47.758,12.301,47.758,34.733
		c0,22.251-19.176,37.266-46.673,37.266c-9.226-0.182-17.91-0.182-26.774-0.182v6.513c0,44.14,2.171,45.407,8.502,45.407h9.226
		c1.448,0,1.448,1.628,0,1.628c-5.245,0-18.994-0.362-21.889-0.362C383.545,285.375,365.998,285.737,364.369,285.737z
		 M390.6,230.382h22.794c22.613,0,35.095-13.569,35.095-35.457c0-21.889-11.578-32.743-34.913-32.743h-15.919
		c-6.694,0-7.056,0.542-7.056,27.135V230.382z"/>
	<path d="M463.492,285.737c-1.446,0-1.446-1.628,0-1.628c8.684,0,11.036-0.543,8.322-0.362c2.714-2.714,3.075-6.332,3.618-16.281
		c0.543-9.95,0.543-27.86,0.543-36.181v-24.06c0-44.321-0.905-45.226-9.77-45.226h-3.256c-1.448,0-1.448-1.628,0-1.628
		c5.065,0,17.367,0.543,20.08,0.543c2.352,0,29.306-0.543,32.38-0.543c29.306,0,47.758,12.301,47.758,34.733
		c0,22.251-19.176,37.266-46.672,37.266c-9.226-0.182-17.91-0.182-26.774-0.182v6.513c0,44.14,2.171,45.407,8.502,45.407h9.226
		c1.448,0,1.448,1.628,0,1.628c-5.245,0-18.994-0.362-21.889-0.362C482.668,285.375,465.121,285.737,463.492,285.737z
		 M489.723,230.382h22.794c22.612,0,35.095-13.569,35.095-35.457c0-21.889-11.578-32.743-34.913-32.743h-15.919
		c-6.694,0-7.056,0.542-7.056,27.135V230.382z"/>
</g>
</svg>
